<svg xmlns="http://www.w3.org/2000/svg" xmlns:xlink="http://www.w3.org/1999/xlink" viewBox="0 0 512.003 512.003" xmlns:v="https://vecta.io/nano"><use xlink:href="#B" fill="#fedea1"/><path d="M64 499.202v-230.4H8.533L256 7.502l247.467 261.299H448v230.4H64zm256-140.8c-21.171 0-38.4 17.229-38.4 38.4s17.229 38.4 38.4 38.4 38.4-17.229 38.4-38.4-17.229-38.4-38.4-38.4zm-128-128c-21.171 0-38.4 17.229-38.4 38.4s17.229 38.4 38.4 38.4 38.4-17.229 38.4-38.4-17.229-38.4-38.4-38.4z" fill="#ff877f"/><use xlink:href="#B" x="128" y="128" fill="#fedea1"/><path d="M102.4 38.402h51.2v71.492l-51.2 51.2z" fill="#a7b0c0"/><path d="M12.8 486.402c-7.074 0-12.8 5.726-12.8 12.8s5.726 12.8 12.8 12.8h486.4c7.074 0 12.8-5.726 12.8-12.8s-5.726-12.8-12.8-12.8h-38.4v-204.8h25.6c10.359 0 19.686-6.238 23.654-15.804 3.96-9.566 1.775-20.574-5.547-27.904l-230.4-230.4A25.55 25.55 0 0 0 256 .002a25.49 25.49 0 0 0-18.099 7.501L166.4 78.995V51.202c0-14.14-11.46-25.6-25.6-25.6h-25.6c-14.14 0-25.6 11.46-25.6 25.6v104.593L7.501 237.894c-7.322 7.322-9.515 18.33-5.547 27.904 3.959 9.566 13.295 15.804 23.646 15.804h25.6v204.8H12.8zm102.4-435.2h25.6v53.393l-25.6 25.6V51.202zm-89.6 204.8L256 25.602l230.4 230.4h-51.2v230.4H76.8v-230.4H25.6zm118.945 170.116L349.34 221.322l18.102 18.102-204.795 204.795zM192 320.002c28.228 0 51.2-22.963 51.2-51.2s-22.972-51.2-51.2-51.2-51.2 22.963-51.2 51.2 22.98 51.2 51.2 51.2zm0-76.8c14.123 0 25.6 11.486 25.6 25.6s-11.477 25.6-25.6 25.6-25.6-11.486-25.6-25.6 11.477-25.6 25.6-25.6zm128 102.4c-28.22 0-51.2 22.963-51.2 51.2s22.972 51.2 51.2 51.2 51.2-22.963 51.2-51.2-22.972-51.2-51.2-51.2zm0 76.8c-14.123 0-25.6-11.486-25.6-25.6s11.477-25.6 25.6-25.6 25.6 11.486 25.6 25.6-11.477 25.6-25.6 25.6z" fill="#573a32"/><defs ><path id="B" d="M192 307.202c-21.171 0-38.4-17.229-38.4-38.4s17.229-38.4 38.4-38.4 38.4 17.229 38.4 38.4-17.229 38.4-38.4 38.4z"/></defs></svg>