<svg xmlns="http://www.w3.org/2000/svg" viewBox="0 0 480 480" xmlns:v="https://vecta.io/nano"><path d="M200 183.2l50.4 77.6-23.2 40h-70.4l-23.2-40 26.4-40h0 0l24-36.8v46.4c-9.6 3.2-16 12-16 22.4 0 13.6 11.2 24 24 24s24-10.4 24-24c0-10.4-6.4-19.2-16-22.4v-47.2h0z" fill="#d9cdc1"/><path d="M200 188.8v40.8c9.6 3.2 16 12 16 22.4 0 12.8-10.4 24-24 24s-24-11.2-24-24c0-10.4 6.4-19.2 16-22.4v-40.8L170.4 220h0 0L152 260l16 40h48l16-40-32-71.2z" fill="#fff8ef"/><path d="M464 452h16v16h-16zm-8 0v16h-24-112-72-8-88-16H32 0v-16h24V20c0-4.8 3.2-8 8-8h120c4 0 8 3.2 8 8v170.4l25.6-38.4c3.2-4.8 10.4-4.8 13.6 0l33.6 51.2V164c0-1.6.8-3.2 1.6-4.8l40-56c3.2-4 10.4-4 12.8 0l40 56c.8 1.6 1.6 3.2 1.6 4.8v112.8c10.4-10.4 24-16.8 40-16.8h16c31.2 0 56 24.8 56 56v136H456zm-32 0v-96h-96v96h96zm0-112v-24c0-22.4-18.4-40-40-40h-16c-22.4 0-40 18.4-40 40v24h96zM312 452V316 179.2l-12 8c-3.2 2.4-7.2 1.6-10.4-.8l-1.6-3.2V452h24zm-3.2-290.4l-28.8-40-28.8 40 12 8 11.2-11.2c3.2-3.2 8-3.2 11.2 0l11.2 11.2 12-8zM272 452V183.2l-2.4 2.4c-2.4 2.4-7.2 3.2-10.4.8l-11.2-8v48l18.4 28.8a7.27 7.27 0 0 1 0 8L245.6 300h2.4c4 0 8 4 8 8v144h16zm-21.6-192L200 183.2v46.4c9.6 3.2 16 12 16 22.4 0 13.6-11.2 24-24 24s-24-10.4-24-24c0-10.4 6.4-19.2 16-22.4v-46.4L160 220h0 0l-26.4 40 23.2 40h70.4l23.2-40zM240 452V316h-8-80-8v136h8v-72h16v72h72zm-40-200c0-4-4-8-8-8s-8 4-8 8 4 8 8 8 8-4 8-8zm-56-36.8V28H40v32h32v16H40v40h32v16H40v40h32v16H40v40h32v16H40v40h32v16H40v40h32v16H40v40h32v16H40v40h88V308c0-4 4-8 8-8h2.4l-20.8-36a7.27 7.27 0 0 1 0-8l26.4-40.8z" fill="#42210b"/><path d="M328 356h96v96h-96z" fill="#2fb4c2"/><path d="M424 316v24h-96v-24c0-22.4 18.4-40 40-40h16c22.4 0 40 18.4 40 40z" fill="#d9cdc1"/><path d="M384 292h-16c-22.4 0-40 18.4-40 40v8h96v-8c0-21.6-17.6-40-40-40z" fill="#fff8ef"/><path d="M312 316v136h-24V183.2l2.4 2.4c2.4 2.4 7.2 3.2 10.4.8l12-8V316h-.8z" fill="#f90"/><path d="M280 121.6l28.8 40-12 8-11.2-11.2c-3.2-3.2-8-3.2-11.2 0l-11.2 11.2-12-8 28.8-40z" fill="#c96"/><path d="M272 183.2V452h-16V308c0-4-4-8-8-8h-2.4l20.8-36a7.27 7.27 0 0 0 0-8L248 227.2v-48l11.2 8c3.2 2.4 7.2 1.6 10.4-.8l2.4-3.2z" fill="#ee5656"/><path d="M240 316v136h-72v-72h-16v72h-8V316h8 80 8zm-72 48v-32h-16v32h16z" fill="#f60"/><path d="M152 332h16v32h-16z" fill="#42210b"/><path d="M144 28v187.2L117.6 256a7.27 7.27 0 0 0 0 8l20.8 36H136c-4 0-8 4-8 8v144H40v-40h32v-16H40v-40h32v-16H40v-40h32v-16H40v-40h32v-16H40v-40h32v-16H40v-40h32v-16H40V76h32V60H40V28h104z" fill="#e4c6a1"/><path d="M40 28l88 24v187.2l16-24V28z" fill="#c96"/><path d="M144,316l57.6,11.2c13.6,2.4,24,13.6,25.6,27.2L240,452V316H144z" fill="#ff5400"/><path d="M328,356l66.4,13.6c8.8,1.6,15.2,8,16.8,16.8L424,452v-96H328z" fill="#1d9aae"/></svg>