<svg xmlns="http://www.w3.org/2000/svg" viewBox="0 0 488.354 488.354" xmlns:v="https://vecta.io/nano"><style><![CDATA[.B{fill:#59264d}.C{fill:#45ffe0}.D{fill:#ff4382}]]></style><path d="M154.506 186.951v126.015h179.342v155.695h-87.245" class="C"/><path d="M333.848 488.353h-87.245c-10.878 0-19.692-8.814-19.692-19.692s8.814-19.692 19.692-19.692h67.552V332.658H154.506c-10.878 0-19.692-8.814-19.692-19.692V186.951c0-10.878 8.814-19.692 19.692-19.692s19.692 8.814 19.692 19.692v106.323h159.649c10.878 0 19.692 8.814 19.692 19.692v155.695a19.69 19.69 0 0 1-19.691 19.692z" class="B"/><path d="M333.848 301.403V175.372H154.506V19.692h87.26" class="D"/><path d="M333.848 321.095c-10.878 0-19.692-8.814-19.692-19.692V195.064h-159.65c-10.878 0-19.692-8.814-19.692-19.692V19.692C134.814 8.814 143.628 0 154.506 0h87.261c10.878 0 19.692 8.814 19.692 19.692s-8.814 19.692-19.692 19.692h-67.568V155.68h159.649c10.878 0 19.692 8.814 19.692 19.692v126.031c0 10.878-8.814 19.692-19.692 19.692z" class="B"/><path d="M221.231 140.304l-89.103 89.111 126.81 126.819-110.096 110.088L87.15 404.63" class="C"/><path d="M148.842 486.014c-5.215 0-10.216-2.079-13.919-5.766l-61.692-61.692c-7.704-7.696-7.704-20.157 0-27.845a19.68 19.68 0 0 1 27.845 0l47.758 47.766 82.243-82.243-112.876-112.892a19.68 19.68 0 0 1 0-27.845l89.112-89.112a19.68 19.68 0 1 1 27.845 27.845l-75.185 75.185 112.884 112.892a19.68 19.68 0 0 1 0 27.845l-110.08 110.096c-3.695 3.687-8.697 5.766-13.935 5.766z" class="B"/><path d="M267.122 348.05l89.12-89.12-126.827-126.81L339.511 22.04l61.7 61.7" class="D"/><path d="M267.122 367.742a19.63 19.63 0 0 1-13.926-5.766 19.68 19.68 0 0 1 0-27.845l75.193-75.193-112.892-112.892a19.72 19.72 0 0 1-5.774-13.926 19.75 19.75 0 0 1 5.774-13.926L325.585 8.113a19.68 19.68 0 0 1 27.845 0l61.692 61.7a19.68 19.68 0 0 1 0 27.845c-7.688 7.696-20.157 7.696-27.829 0l-47.781-47.774-82.243 82.235L370.16 245.004c3.694 3.694 5.774 8.696 5.774 13.926s-2.087 10.232-5.774 13.926l-89.112 89.112c-3.851 3.844-8.892 5.774-13.926 5.774z" class="B"/><path d="M301.418 154.506l-126.03.008v179.334l-155.696.007v-87.244" class="C"/><path d="M19.692 353.548c-5.222 0-10.232-2.079-13.926-5.766S0 339.086 0 333.855V246.61c0-10.878 8.814-19.692 19.692-19.692s19.692 8.814 19.692 19.692v67.553l116.311-.008V154.514c0-10.878 8.814-19.692 19.692-19.692l126.031-.008c10.87 0 19.692 8.814 19.692 19.692s-8.822 19.692-19.692 19.692l-106.338.008v159.642c0 10.878-8.822 19.692-19.692 19.692l-155.696.008z" class="B"/><path d="M186.951 333.855h126.031V154.514h155.679v87.252" class="D"/><path d="M312.982 353.548H186.951c-10.878 0-19.692-8.814-19.692-19.692s8.814-19.692 19.692-19.692h106.338l-.016-159.649a19.73 19.73 0 0 1 5.774-13.926 19.67 19.67 0 0 1 13.934-5.766h155.68c10.878 0 19.692 8.814 19.692 19.692v87.253c0 10.878-8.814 19.692-19.692 19.692s-19.692-8.814-19.692-19.692v-67.56H332.658l.016 159.649c0 5.222-2.079 10.232-5.766 13.926s-8.704 5.765-13.926 5.765z" class="B"/><path d="M348.058 221.239l-89.128-89.104-126.81 126.803L22.032 148.85l61.692-61.692" class="C"/><path d="M132.12 278.63c-5.041 0-10.075-1.922-13.926-5.766L8.105 162.777a19.68 19.68 0 0 1-5.766-13.926c0-5.23 2.08-10.224 5.766-13.919L69.797 73.24a19.68 19.68 0 0 1 27.845 0c7.688 7.696 7.696 20.157 0 27.845L49.877 148.85l82.243 82.235 112.876-112.876a19.7 19.7 0 0 1 27.861 0l89.112 89.104c7.712 7.688 7.712 20.157 0 27.845-7.672 7.696-20.157 7.696-27.845 0L258.93 159.98 146.046 272.857a19.61 19.61 0 0 1-13.926 5.773z" class="B"/><path d="M140.296 267.122l89.119 89.128 126.819-126.819 110.08 110.08-61.7 61.7" class="D"/><path d="M404.614 420.903a19.63 19.63 0 0 1-13.926-5.766 19.68 19.68 0 0 1 0-27.845l47.766-47.774-82.219-82.243L243.35 370.168c-7.389 7.389-20.464 7.389-27.845 0l-89.127-89.119a19.68 19.68 0 1 1 27.845-27.845l75.193 75.201 112.884-112.9c7.704-7.696 20.165-7.696 27.845 0l110.088 110.08c3.694 3.694 5.774 8.696 5.774 13.926s-2.087 10.232-5.774 13.926l-61.692 61.7c-3.853 3.837-8.894 5.766-13.927 5.766z" class="B"/></svg>