<svg xmlns="http://www.w3.org/2000/svg" width="36" height="36" preserveAspectRatio="xMidYMid meet" xmlns:v="https://vecta.io/nano"><path fill="#3b88c3" d="M36 36v-2a6 6 0 0 0-6-6H14a6 6 0 0 0-6 6v2h28z"/><path fill="#292f33" d="M22 35.999L16.4 27h11.2z"/><path fill="#ffdc5d" d="M17.64 30.038c1.744 1.268 2.848 1.963 4.36 1.963s2.615-.696 4.359-1.963v-5.749h-8.72v5.749z"/><path fill="#55acee" d="M15 28c0 1 1 3 3 5 1.581 1.581 4 3 4 3 0-3.063-1-4-2-5s-3-2-3-4c0-1-2 1-2 1m14 0c0 1-1 3-3 5-1.581 1.581-4 3-4 3 0-3.063 1-4 2-5s3-2 3-4c0-1 2 1 2 1"/><path fill="#f9ca55" d="M17.632 25.973c1.216 1.374 2.724 1.746 4.364 1.746s3.147-.372 4.364-1.746v-3.491h-8.728v3.491z"/><path fill="#ffac33" d="M25.152 3.3c-1.925-.623-5.876-.46-7.008 1.012-2.944.057-6.083 2.932-6.536 6.443-.448 3.475.235 4.874.591 7.486.403 2.96 2.067 3.907 3.397 4.303 1.914 2.529 3.949 2.421 7.366 2.421 6.672 0 9.271-4.458 9.552-12.04.169-4.585-2.522-8.059-7.362-9.625z"/><path fill="#ffdc5d" d="M29.547 13.243c-.646-.894-1.472-1.614-3.284-1.868.68.311 1.331 1.387 1.416 1.982s.17 1.076-.368.481c-2.155-2.382-4.502-1.444-6.827-2.899-1.624-1.016-2.119-2.141-2.119-2.141s-.198 1.5-2.661 3.029c-.714.443-1.566 1.43-2.038 2.888-.34 1.048-.234 1.982-.234 3.578 0 4.66 3.841 8.578 8.578 8.578s8.578-3.953 8.578-8.578c-.002-2.898-.305-4.03-1.041-5.05z"/><path fill="#c1694f" d="M22.961 20.677h-1.906a.477.477 0 1 1 0-.954h1.906a.477.477 0 1 1 0 .954z"/><path fill="#662113" d="M18.195 17.341a.953.953 0 0 1-.953-.953v-.953a.953.953 0 0 1 1.906 0v.953a.953.953 0 0 1-.953.953zm7.626 0a.953.953 0 0 1-.953-.953v-.953a.953.953 0 0 1 1.906 0v.953a.953.953 0 0 1-.953.953z"/><path fill="#c1694f" d="M22.134 24.657c-2.754 0-3.6-.705-3.741-.848a.655.655 0 0 1 .902-.95c.052.037.721.487 2.839.487 2.2 0 2.836-.485 2.842-.49a.638.638 0 0 1 .913.015.67.67 0 0 1-.014.939c-.142.142-.987.847-3.741.847"/><g fill="#f9ca55"><circle cx="17.25" cy="16" r="3.75"/><circle cx="26.75" cy="16" r="3.75"/><path d="M19.5 15h5v2.5h-5z"/></g><g fill="#e1e8ed"><circle cx="17.5" cy="15.5" r="3.5"/><circle cx="26.5" cy="15.5" r="3.5"/><path d="M19.5 14h5v2.5h-5z"/></g><g fill="#292f33"><circle cx="17.5" cy="15.5" r="2.5"/><circle cx="26.5" cy="15.5" r="2.5"/></g><path fill="#66757f" d="M5 24l-1.5 1S5 27.5 5 31v5h2v-5c0-4.5-2-7-2-7z"/><path fill="#99aab5" d="M6.079 23.807a.785.785 0 0 1-.307 1.064l-2.13 1.178a.784.784 0 0 1-1.064-.309l-.451-.816a.783.783 0 0 1 .307-1.064l2.13-1.178a.783.783 0 0 1 1.064.309l.451.816z"/><path fill="#f4900c" d="M3.49 22.584C7.678 20.375.052 16.313.052 16.313s-.75 8.48 3.438 6.271z"/><path fill="#ffdc5d" d="M2.96 21.365c2.202-1.162-1.808-3.299-1.808-3.299s-.394 4.459 1.808 3.299z"/><path fill="#3b88c3" d="M34 11c-3-2-1.008-4.169-3-7-1.874-2.663-5-4-9.003-4C17 0 14.874 1.337 13 4c-1.992 2.831 0 5-3 7-1.861 1.24 6 2.313 12 2.313S35.861 12.24 34 11"/><path fill="#269" d="M20 11.5V.088l-1 .124v10.281c-2.09-.05-5.124-.396-7.653-.853a3.67 3.67 0 0 1-.73.877c2.911.565 6.596.982 8.883.982h.5zm4.5 0c2.421 0 6.037-.393 8.907-.959a3.73 3.73 0 0 1-.741-.877c-2.431.448-5.371.787-7.667.832V.292l-1-.155V11.5h.501z"/></svg>