<svg xmlns="http://www.w3.org/2000/svg" xmlns:xlink="http://www.w3.org/1999/xlink" viewBox="0 0 512 512" xmlns:v="https://vecta.io/nano"><path d="M10.956 313.521h415.772v142.425H10.956z" fill="#bfdeff"/><path d="M10.956 264.22h87.646v49.301H10.956z" fill="#a8a8a8"/><path d="M147.903 94.405h43.823v43.823h-43.823zm0 87.647h43.823v43.823h-43.823z" fill="#ffac3d"/><path d="M333.604 116.317h93.124v87.646h-93.124z" fill="#ebebeb"/><path d="M282.869 176.286l50.735 27.673v-87.646l-50.735 27.673a18.27 18.27 0 0 0-9.522 16.04v.219c0 6.687 3.653 12.839 9.522 16.041z" fill="#ffac3d"/><path d="M377.427 203.963h49.301v109.558h-49.301z" fill="#2969b0"/><path d="M199.034 264.22h104.08v49.301h-104.08z" fill="#ebebeb"/><path d="M10.956 56.06h87.646v208.16H10.956z" fill="#2969b0"/><path d="M147.903 225.872l-49.301 10.955V83.446l49.301 10.956z" fill="#ebebeb"/><g fill="#231f20"><path d="M501.044 101.888h-32.137a10.96 10.96 0 0 0-10.956 10.956v36.337h-20.268v-32.867a10.96 10.96 0 0 0-10.956-10.956h-93.124c-1.901 0-3.689.485-5.247 1.338h0l-50.734 27.674c-6.075 3.313-10.648 8.6-13.132 14.812h-41.723a10.96 10.96 0 0 0-10.956 10.956 10.96 10.96 0 0 0 10.956 10.956h41.723c2.484 6.212 7.057 11.498 13.132 14.812h-.001l50.735 27.674h0c1.558.851 3.346 1.338 5.247 1.338h32.867v87.646h-52.405v-38.345a10.96 10.96 0 0 0-10.956-10.956H199.03a10.96 10.96 0 0 0-10.956 10.956v38.345h-78.517v-56.947l39.547-8.788h42.621a10.96 10.96 0 0 0 10.956-10.956V182.05a10.96 10.96 0 0 0-10.956-10.956h-32.867v-21.912h32.867a10.96 10.96 0 0 0 10.956-10.956V94.404a10.96 10.96 0 0 0-10.956-10.956h-42.621l-39.547-8.791v-18.6a10.96 10.96 0 0 0-10.956-10.956H10.956A10.96 10.96 0 0 0 0 56.057v399.886a10.96 10.96 0 0 0 10.956 10.956h415.772a10.96 10.96 0 0 0 10.956-10.956v-284.85h20.268v36.337a10.96 10.96 0 0 0 10.956 10.956 10.96 10.96 0 0 0 10.956-10.956V123.8h21.181a10.96 10.96 0 0 0 10.956-10.956 10.96 10.96 0 0 0-10.957-10.956zm-212.929 64.779a7.31 7.31 0 0 1-3.813-6.421v-.218c0-2.679 1.46-5.138 3.813-6.421l34.533-18.836v50.735l-34.533-18.839zm56.444-39.397h71.213v65.735h-71.213V127.27zm43.824 87.646h27.389v87.646h-27.389v-87.646zm-178.397 60.257h82.168v27.389h-82.168v-27.389h0zm-188.074 0h65.735v27.389H21.912v-27.389zm158.858-82.169v21.912h-21.912v-21.912h21.912zm0-65.734h-21.912v-21.912h21.912v21.912zm-43.823-24.08v113.893l-27.389 6.087V97.103l27.389 6.087zM21.912 67.013h65.735v186.248H21.912V67.013zm0 377.974v-65.735h54.414a10.96 10.96 0 0 0 10.956-10.956 10.96 10.96 0 0 0-10.956-10.956H21.912v-32.867h393.861v65.735h-55.51a10.96 10.96 0 0 0-10.956 10.956 10.96 10.96 0 0 0 10.956 10.956h55.51v32.867H21.912z"/><use xlink:href="#B"/><use xlink:href="#B" x="199.944" y="32.867"/><path d="M161.598 357.341c-2.881 0-5.708 1.171-7.746 3.21a11.04 11.04 0 0 0-3.21 7.746c0 2.882 1.172 5.708 3.21 7.745a11.04 11.04 0 0 0 7.746 3.211c2.882 0 5.708-1.172 7.746-3.211s3.21-4.863 3.21-7.745a11.04 11.04 0 0 0-10.956-10.956z"/></g><defs ><path id="B" d="M121.061 357.341h-1.096a10.96 10.96 0 0 0-10.956 10.956 10.96 10.96 0 0 0 10.956 10.956h1.096a10.96 10.96 0 0 0 10.956-10.956 10.96 10.96 0 0 0-10.956-10.956z"/></defs></svg>